<?xml version="1.0" encoding="utf-8"?>
<!-- Generator: Adobe Illustrator 15.0.0, SVG Export Plug-In . SVG Version: 6.00 Build 0)  -->
<!DOCTYPE svg PUBLIC "-//W3C//DTD SVG 1.1//EN" "http://www.w3.org/Graphics/SVG/1.1/DTD/svg11.dtd">
<svg version="1.1" id="Layer_2" xmlns="http://www.w3.org/2000/svg" xmlns:xlink="http://www.w3.org/1999/xlink" x="0px" y="0px"
	 width="532.474px" height="358.482px" viewBox="0 0 532.474 358.482" enable-background="new 0 0 532.474 358.482"
	 xml:space="preserve">
<g>
	<path fill="#F47721" d="M11.396,352.9h111v-334h-111V352.9z M39.396,185.9h55v29h-55V185.9z M39.396,269.9h55v29h-55V269.9z"/>
	<path fill="#F47721" d="M525.959,295.902L352.737,10.331l-90.675,55.002v-45.1h-111v334h111V74.873l168.991,278.597
		L525.959,295.902z M234.063,300.233h-55v-29h55V300.233z M234.063,216.233h-55v-29h55V216.233z M383.423,220.958l-15.04-24.795
		l47.025-28.524l15.04,24.795 M411.947,267.983l47.025-28.524l15.04,24.795l-47.025,28.524L411.947,267.983z"/>
</g>
</svg>
