<?xml version="1.0" encoding="utf-8"?>
<!-- Generator: Adobe Illustrator 15.0.0, SVG Export Plug-In . SVG Version: 6.00 Build 0)  -->
<!DOCTYPE svg PUBLIC "-//W3C//DTD SVG 1.1//EN" "http://www.w3.org/Graphics/SVG/1.1/DTD/svg11.dtd">
<svg version="1.1" id="Layer_2" xmlns="http://www.w3.org/2000/svg" xmlns:xlink="http://www.w3.org/1999/xlink" x="0px" y="0px"
	 width="26.875px" height="27.25px" viewBox="0 0 26.875 27.25" enable-background="new 0 0 26.875 27.25" xml:space="preserve">
<path fill="#CCCCCC" d="M25.528,22.805l-7.855-7.773c0.996-1.472,1.578-3.246,1.578-5.156c0-5.085-4.123-9.208-9.208-9.208
	c-5.086,0-9.209,4.123-9.209,9.208c0,5.086,4.123,9.209,9.209,9.209c1.645,0,3.185-0.437,4.521-1.191l8.021,7.941
	C24.589,26,25.702,24.88,25.528,22.805z M10.001,15.917c-3.313,0-6-2.687-6-6s2.687-6,6-6s6,2.687,6,6S13.314,15.917,10.001,15.917z
	"/>
</svg>
