<?xml version="1.0" encoding="utf-8"?>
<!-- Generator: Adobe Illustrator 21.1.0, SVG Export Plug-In . SVG Version: 6.00 Build 0)  -->
<svg version="1.1" id="Layer_1" xmlns="http://www.w3.org/2000/svg" xmlns:xlink="http://www.w3.org/1999/xlink" x="0px" y="0px"
	 viewBox="0 0 559 440" style="enable-background:new 0 0 559 440;" xml:space="preserve">
<style type="text/css">
	.st0{fill:#FFFFFF;}
</style>
<g id="Layer_2">
</g>
<g id="Layer_3">
	<g>
		<path class="st0" d="M555.7,226.9L555.7,226.9c-13.4-46.7-37.8-89.4-71.9-124.9c-54.2-56.4-126.4-87.5-203.3-87.5
			S131.4,45.6,77.2,102c-34.1,35.4-58.4,78.2-71.8,124.9h0c0,0,0,0,0,0.1c0,0,0,0,0,0.1h0c13.4,46.7,37.8,89.4,71.8,124.9
			c54.2,56.4,126.4,87.5,203.3,87.5s149.1-31.1,203.3-87.5c34.1-35.4,58.4-78.2,71.8-124.9h0C555.7,227,555.6,227,555.7,226.9
			C555.6,226.9,555.7,226.9,555.7,226.9z M258,211c0,15.5-12.5,28-28,28s-28-12.5-28-28s12.5-28,28-28S258,195.5,258,211z
			 M280.5,386.4c-100.4,0-186.2-66.4-219.4-159.4c21.6-60.7,65.8-110.1,121.7-137.1C163,112.4,151,142.1,151,174.5
			c0,71,57.5,128.5,128.5,128.5S408,245.5,408,174.5c0-33.2-12.6-63.5-33.3-86.3c57.6,26.6,103.1,76.7,125.2,138.7
			C466.7,319.9,380.9,386.4,280.5,386.4z"/>
	</g>
</g>
</svg>
