<?xml version="1.0" encoding="utf-8"?>
<!-- Generator: Adobe Illustrator 27.8.1, SVG Export Plug-In . SVG Version: 6.00 Build 0)  -->
<svg version="1.1" id="Layer_1" xmlns="http://www.w3.org/2000/svg" xmlns:xlink="http://www.w3.org/1999/xlink" x="0px" y="0px"
	 viewBox="0 0 209 175" style="enable-background:new 0 0 209 175;" xml:space="preserve">
<style type="text/css">
	.st0{display:none;}
	.st1{display:inline;fill:#FFFFFF;}
	.st2{fill:#FFFFFF;}
</style>
<g class="st0">
	<path class="st1" d="M206.1,25.9c-7.4,3.3-15.4,5.5-23.8,6.5c8.6-5.1,15.1-13.3,18.2-23c-8,4.8-16.9,8.2-26.4,10.1
		c-7.6-8.1-18.4-13.1-30.3-13.1c-22.9,0-41.5,18.6-41.5,41.5c0,3.3,0.4,6.4,1.1,9.5c-34.5-1.7-65.1-18.2-85.5-43.4
		c-3.6,6.1-5.6,13.3-5.6,20.9c0,14.4,7.3,27.1,18.5,34.5c-6.8-0.2-13.2-2.1-18.8-5.2c0,0.2,0,0.3,0,0.5c0,20.1,14.3,36.9,33.3,40.7
		c-3.5,0.9-7.1,1.5-10.9,1.5c-2.7,0-5.3-0.3-7.8-0.7c5.3,16.5,20.6,28.5,38.8,28.8c-14.2,11.1-32.1,17.8-51.5,17.8
		c-3.4,0-6.7-0.2-9.9-0.6C22.2,164,44,170.8,67.4,170.8c76.3,0,118.1-63.2,118.1-118.1c0-1.8,0-3.6-0.1-5.4
		C193.5,41.5,200.5,34.2,206.1,25.9z"/>
</g>
<path class="st2" d="M118.8,76.9L174.6,12h-13.2l-48.5,56.4L74.2,12H29.5l58.6,85.2l-58.6,68.1h13.2l51.2-59.5l40.9,59.5h44.7
	L118.8,76.9L118.8,76.9z M100.6,98l-5.9-8.5L47.5,22h20.3l38.1,54.5l5.9,8.5l49.5,70.8h-20.3L100.6,98L100.6,98z"/>
</svg>
