<?xml version="1.0" encoding="utf-8"?>
<!-- Generator: Adobe Illustrator 15.0.0, SVG Export Plug-In . SVG Version: 6.00 Build 0)  -->
<!DOCTYPE svg PUBLIC "-//W3C//DTD SVG 1.1//EN" "http://www.w3.org/Graphics/SVG/1.1/DTD/svg11.dtd">
<svg version="1.1" id="Layer_2" xmlns="http://www.w3.org/2000/svg" xmlns:xlink="http://www.w3.org/1999/xlink" x="0px" y="0px"
	 width="435px" height="434px" viewBox="0 0 435 434" enable-background="new 0 0 435 434" xml:space="preserve">
<g>
	<path fill="#FFFFFF" d="M356.333,429.333H81.667c-41.355,0-75-33.645-75-75v-274c0-41.355,33.645-75,75-75h274.667
		c41.355,0,75,33.645,75,75v274C431.333,395.688,397.688,429.333,356.333,429.333z M81.667,35.333c-24.813,0-45,20.187-45,45v274
		c0,24.813,20.187,45,45,45h274.667c24.813,0,45-20.187,45-45v-274c0-24.813-20.187-45-45-45H81.667z"/>
</g>
<g>
	<circle fill="#FFFFFF" cx="223.667" cy="212" r="98.333"/>
	<path fill="#FFFFFF" d="M223.667,325.333c-62.492,0-113.333-50.841-113.333-113.333S161.175,98.667,223.667,98.667
		S337,149.508,337,212S286.159,325.333,223.667,325.333z M223.667,128.667c-45.95,0-83.333,37.383-83.333,83.333
		s37.383,83.333,83.333,83.333S307,257.95,307,212S269.617,128.667,223.667,128.667z"/>
</g>
<circle fill="#FFFFFF" cx="340" cy="95.333" r="27"/>
</svg>
