<?xml version="1.0" encoding="utf-8"?>
<!-- Generator: Adobe Illustrator 15.0.0, SVG Export Plug-In . SVG Version: 6.00 Build 0)  -->
<!DOCTYPE svg PUBLIC "-//W3C//DTD SVG 1.1//EN" "http://www.w3.org/Graphics/SVG/1.1/DTD/svg11.dtd">
<svg version="1.1" id="Layer_3" xmlns="http://www.w3.org/2000/svg" xmlns:xlink="http://www.w3.org/1999/xlink" x="0px" y="0px"
	 width="120px" height="122px" viewBox="0 0 120 122" enable-background="new 0 0 120 122" xml:space="preserve">
<g>
	<path fill="none" d="M94,115c0-47.972-39.028-87-87-87c-0.167,0-0.333,0.005-0.5,0.006v15.103c39.503,2.086,71,34.878,71,74.891"/>
	<path fill="none" d="M57.5,118c0-28.98-22.535-52.781-51-54.839"/>
</g>
<g>
	<path fill="#FFFFFF" d="M114,115C114,56,66,8,7,8C6.833,8,6.667,8.005,6.5,8.006v20C6.667,28.005,6.833,28,7,28
		c47.972,0,87,39.028,87,87c0,0.501-0.011,1-0.02,1.5h20C113.988,116,114,115.501,114,115z"/>
	<path fill="#FFFFFF" d="M6.5,43.109v20.052c27.971,2.022,50.2,25.043,50.964,53.339h19.999C76.686,77.173,45.507,45.169,6.5,43.109
		z"/>
</g>
<circle fill="#FFFFFF" cx="21.083" cy="100.917" r="14.583"/>
</svg>
