<?xml version="1.0" encoding="utf-8"?>
<!-- Generator: Adobe Illustrator 15.0.0, SVG Export Plug-In . SVG Version: 6.00 Build 0)  -->
<!DOCTYPE svg PUBLIC "-//W3C//DTD SVG 1.1//EN" "http://www.w3.org/Graphics/SVG/1.1/DTD/svg11.dtd">
<svg version="1.1" id="Layer_2" xmlns="http://www.w3.org/2000/svg" xmlns:xlink="http://www.w3.org/1999/xlink" x="0px" y="0px"
	 width="612px" height="792px" viewBox="0 0 612 792" enable-background="new 0 0 612 792" xml:space="preserve">
<g>
	<path fill="#F05223" d="M280,361.333H140.667c-12.131,0-22-9.869-22-22V230.667c0-12.131,9.869-22,22-22H280
		c12.131,0,22,9.869,22,22v108.667C302,351.464,292.131,361.333,280,361.333z M148.667,331.333H272v-92.667H148.667V331.333z"/>
</g>
<path fill="#F05223" d="M497.667,219.667c0,8.468-6.865,15.333-15.333,15.333H357.666c-8.468,0-15.333-6.865-15.333-15.333l0,0
	c0-8.469,6.865-15.333,15.333-15.333h124.668C490.802,204.333,497.667,211.198,497.667,219.667L497.667,219.667z"/>
<path fill="#F05223" d="M498,283.667c0,8.468-6.865,15.333-15.333,15.333H357.999c-8.468,0-15.333-6.865-15.333-15.333l0,0
	c0-8.469,6.865-15.333,15.333-15.333h124.668C491.135,268.333,498,275.198,498,283.667L498,283.667z"/>
<path fill="#F05223" d="M497.334,347c0,8.468-6.865,15.333-15.333,15.333H357.333c-8.468,0-15.333-6.865-15.333-15.333l0,0
	c0-8.469,6.865-15.333,15.333-15.333h124.668C490.469,331.667,497.334,338.532,497.334,347L497.334,347z"/>
<path fill="#F05223" d="M498.667,411.667c0,8.468-6.865,15.333-15.333,15.333H130.666c-8.468,0-15.333-6.865-15.333-15.333l0,0
	c0-8.469,6.865-15.333,15.333-15.333h352.668C491.802,396.333,498.667,403.198,498.667,411.667L498.667,411.667z"/>
<path fill="#F05223" d="M498,475.667c0,8.468-6.865,15.333-15.333,15.333H129.999c-8.468,0-15.333-6.865-15.333-15.333l0,0
	c0-8.469,6.865-15.333,15.333-15.333h352.668C491.135,460.334,498,467.198,498,475.667L498,475.667z"/>
<path fill="#F05223" d="M498.667,539.001c0,8.468-6.865,15.333-15.333,15.333H130.666c-8.468,0-15.333-6.865-15.333-15.333l0,0
	c0-8.469,6.865-15.333,15.333-15.333h352.668C491.802,523.668,498.667,530.532,498.667,539.001L498.667,539.001z"/>
<g>
	<path fill="#F05223" d="M534.5,704.5h-455c-22.056,0-40-17.944-40-40v-510c0-22.056,17.944-40,40-40h455c22.056,0,40,17.944,40,40
		v510C574.5,686.556,556.556,704.5,534.5,704.5z M79.5,154.5v510h455c0.018,0,0.025-0.001,0.025-0.001L534.5,154.5H79.5z"/>
</g>
</svg>
