<?xml version="1.0" encoding="utf-8"?>
<!-- Generator: Adobe Illustrator 15.0.0, SVG Export Plug-In . SVG Version: 6.00 Build 0)  -->
<!DOCTYPE svg PUBLIC "-//W3C//DTD SVG 1.1//EN" "http://www.w3.org/Graphics/SVG/1.1/DTD/svg11.dtd">
<svg version="1.1" id="Layer_2" xmlns="http://www.w3.org/2000/svg" xmlns:xlink="http://www.w3.org/1999/xlink" x="0px" y="0px"
	 width="612px" height="792px" viewBox="0 0 612 792" enable-background="new 0 0 612 792" xml:space="preserve">
<g>
	<path fill="#F05223" d="M210.401,218.1c9.228-7.179,19.017-13.757,29.285-19.717c-44.213,6.019-84.558,18.018-118.483,34.474
		c0.215,0.126,0.422,0.256,0.638,0.382c15.179,8.887,31.924,16.541,49.871,22.883C182.541,242.466,195.48,229.708,210.401,218.1z"/>
	<path fill="#F05223" d="M100.826,243.733C51.005,272.944,19.004,312.766,15.353,357h116.904
		c1.585-29.623,10.981-58.102,27.418-83.976c-17.139-6.372-33.214-13.903-47.939-22.525
		C107.977,248.298,104.348,246.038,100.826,243.733z"/>
	<path fill="#F05223" d="M152.286,357H296v-59.138c-41.199-0.946-80.84-7.192-116.65-18.188
		C163.583,303.032,153.997,329.235,152.286,357z"/>
	<path fill="#F05223" d="M192.335,262.678c32.021,9.108,67.155,14.311,103.665,15.181v-83.235
		C253.66,209.362,217.721,233.116,192.335,262.678z"/>
</g>
<path fill="#F05223" d="M400.953,218.1c-9.229-7.179-19.019-13.757-29.285-19.717c44.213,6.019,84.558,18.018,118.482,34.474
	c-0.216,0.126-0.423,0.256-0.639,0.382c-15.179,8.887-31.924,16.541-49.87,22.883C428.813,242.466,415.873,229.708,400.953,218.1z"
	/>
<path fill="#F05223" d="M510.527,243.733C560.348,272.944,592.35,312.766,596,357H479.097c-1.585-29.623-10.98-58.102-27.419-83.976
	c17.141-6.372,33.215-13.903,47.939-22.525C503.377,248.298,507.006,246.038,510.527,243.733z"/>
<path fill="#F05223" d="M459.067,357H315.354v-59.138c41.199-0.946,80.841-7.192,116.65-18.188
	C447.771,303.031,457.357,329.235,459.067,357z"/>
<path fill="#F05223" d="M419.018,262.678c-32.021,9.108-67.153,14.311-103.664,15.182v-83.236
	C357.693,209.362,393.633,233.116,419.018,262.678z"/>
<g>
	<path fill="#F05223" d="M210.401,515.523c9.228,7.179,19.017,13.757,29.285,19.717c-44.213-6.021-84.558-18.019-118.483-34.476
		c0.215-0.127,0.422-0.256,0.638-0.383c15.179-8.887,31.924-16.54,49.871-22.883C182.541,491.157,195.48,503.915,210.401,515.523z"
		/>
	<path fill="#F05223" d="M100.826,489.891c-49.82-29.212-81.821-69.032-85.473-113.268h116.904
		c1.585,29.623,10.981,58.102,27.418,83.977c-17.139,6.371-33.214,13.902-47.939,22.525
		C107.977,485.325,104.348,487.585,100.826,489.891z"/>
	<path fill="#F05223" d="M152.286,376.623H296v59.138c-41.199,0.946-80.84,7.192-116.65,18.188
		C163.583,430.592,153.997,404.388,152.286,376.623z"/>
	<path fill="#F05223" d="M192.335,470.945c32.021-9.108,67.155-14.312,103.665-15.183V539
		C253.66,524.262,217.721,500.508,192.335,470.945z"/>
</g>
<path fill="#F05223" d="M400.953,515.523c-9.229,7.179-19.019,13.757-29.285,19.717c44.213-6.021,84.558-18.019,118.482-34.476
	c-0.216-0.127-0.423-0.256-0.639-0.383c-15.179-8.887-31.924-16.54-49.87-22.883C428.813,491.157,415.873,503.915,400.953,515.523z"
	/>
<path fill="#F05223" d="M510.527,489.891c49.819-29.212,81.821-69.032,85.473-113.268H479.097
	c-1.585,29.623-10.98,58.102-27.419,83.977c17.141,6.371,33.215,13.902,47.939,22.525
	C503.377,485.325,507.006,487.585,510.527,489.891z"/>
<path fill="#F05223" d="M459.067,376.623H315.354v59.138c41.199,0.946,80.841,7.192,116.65,18.188
	C447.771,430.592,457.357,404.388,459.067,376.623z"/>
<path fill="#F05223" d="M419.018,470.945c-32.021-9.108-67.153-14.312-103.664-15.183V539
	C357.693,524.262,393.633,500.508,419.018,470.945z"/>
</svg>
