<?xml version="1.0" encoding="utf-8"?>
<!-- Generator: Adobe Illustrator 15.0.0, SVG Export Plug-In . SVG Version: 6.00 Build 0)  -->
<!DOCTYPE svg PUBLIC "-//W3C//DTD SVG 1.1//EN" "http://www.w3.org/Graphics/SVG/1.1/DTD/svg11.dtd">
<svg version="1.1" id="Layer_2" xmlns="http://www.w3.org/2000/svg" xmlns:xlink="http://www.w3.org/1999/xlink" x="0px" y="0px"
	 width="612px" height="792px" viewBox="0 0 612 792" enable-background="new 0 0 612 792" xml:space="preserve">
<circle fill="#F84F05" cx="151" cy="295.666" r="58.667"/>
<g>
	<path fill="#F84F05" d="M574.666,624.333H42c-14.888,0-27-12.112-27-27v-408c0-14.888,12.112-27,27-27h532.667
		c14.888,0,27,12.112,27,27v408C601.666,612.221,589.554,624.333,574.666,624.333z M55,584.333h506.667v-382H55V584.333z"/>
</g>
<g>
	<path fill="#F84F05" d="M521.938,547.951c-143.647,0-430.945,0-430.945,0L90.875,499.5c0,0-0.177-5.027,0.115-7.542
		c0.983-8.465,14.979-19.979,21.997-26.997c24.615-24.615,52.079-49.717,74.991-72.99c17.746,14.582,32.914,31.744,48.994,47.993
		c54.244-50.41,104.57-104.736,157.98-155.98c28.143,26.691,64.213,64.213,95.988,95.988c9.262,9.263,26.875,22.402,29.31,31.278
		c2.438,8.888,1.688,23.765,1.688,34.714C521.938,479.335,521.938,513.771,521.938,547.951z"/>
</g>
</svg>
