<?xml version="1.0" encoding="utf-8"?>
<!-- Generator: Adobe Illustrator 21.1.0, SVG Export Plug-In . SVG Version: 6.00 Build 0)  -->
<svg version="1.1" id="Layer_2" xmlns="http://www.w3.org/2000/svg" xmlns:xlink="http://www.w3.org/1999/xlink" x="0px" y="0px"
	 viewBox="0 0 435 434" style="enable-background:new 0 0 435 434;" xml:space="preserve">
<style type="text/css">
	.st0{fill:#FFFFFF;}
</style>
<g>
	<path class="st0" d="M356.3,429.3H81.7c-41.4,0-75-33.6-75-75v-274c0-41.4,33.6-75,75-75h274.7c41.4,0,75,33.6,75,75v274
		C431.3,395.7,397.7,429.3,356.3,429.3z M81.7,35.3c-24.8,0-45,20.2-45,45v274c0,24.8,20.2,45,45,45h274.7c24.8,0,45-20.2,45-45
		v-274c0-24.8-20.2-45-45-45C356.3,35.3,81.7,35.3,81.7,35.3z"/>
</g>
<rect x="9.2" y="97.5" transform="matrix(0.7879 0.6158 -0.6158 0.7879 97.3861 -58.3339)" class="st0" width="248.4" height="29.5"/>
<rect x="186.3" y="97.4" transform="matrix(-0.7742 0.6329 -0.6329 -0.7742 616.4978 4.3492)" class="st0" width="242.3" height="29.5"/>
</svg>
