<?xml version="1.0" encoding="utf-8"?>
<!-- Generator: Adobe Illustrator 15.0.0, SVG Export Plug-In . SVG Version: 6.00 Build 0)  -->
<!DOCTYPE svg PUBLIC "-//W3C//DTD SVG 1.1//EN" "http://www.w3.org/Graphics/SVG/1.1/DTD/svg11.dtd">
<svg version="1.1" id="Layer_1" xmlns="http://www.w3.org/2000/svg" xmlns:xlink="http://www.w3.org/1999/xlink" x="0px" y="0px"
	 width="147.333px" height="277.333px" viewBox="0 0 147.333 277.333" enable-background="new 0 0 147.333 277.333"
	 xml:space="preserve">
<rect x="-212" y="-145.333" fill="none" width="512" height="512"/>
<path fill="#FFFFFF" d="M11.582,105.834h30.309V69.436c0-42.238,25.796-65.238,63.476-65.238h30.922
	c3.953,0,7.164,3.207,7.164,7.164v31.762c0,3.957-3.207,7.164-7.16,7.164l-18.977,0.011c-20.492,0-24.461,9.735-24.461,24.028
	v31.511h45.027c4.293,0,7.621,3.747,7.113,8.004l-4.465,37.672c-0.426,3.606-3.484,6.321-7.113,6.321H93.059l-0.202,116.332H41.888
	l0.202-116.332H11.727c-3.946,0-7.149-3.192-7.161-7.137l-0.148-37.672C4.402,109.061,7.617,105.834,11.582,105.834z"/>
</svg>
